<?xml version="1.0" encoding="UTF-8" standalone="no"?>
<svg
   xmlns:dc="http://purl.org/dc/elements/1.1/"
   xmlns:cc="http://creativecommons.org/ns#"
   xmlns:rdf="http://www.w3.org/1999/02/22-rdf-syntax-ns#"
   xmlns:svg="http://www.w3.org/2000/svg"
   xmlns="http://www.w3.org/2000/svg"
   xmlns:sodipodi="http://sodipodi.sourceforge.net/DTD/sodipodi-0.dtd"
   xmlns:inkscape="http://www.inkscape.org/namespaces/inkscape"
   width="220px"
   height="280px"
   viewBox="0 0 220px 280px"
   version="1.1"
   id="svg2"
   inkscape:version="0.91 r13725"
   sodipodi:docname="bannerbackgroundL.svg">
  <metadata
     id="metadata24">
    <rdf:RDF>
      <cc:Work
         rdf:about="">
        <dc:format>image/svg+xml</dc:format>
        <dc:type
           rdf:resource="http://purl.org/dc/dcmitype/StillImage" />
      </cc:Work>
    </rdf:RDF>
  </metadata>
  <defs
     id="defs22" />
  <path
     d="M 98.710938,1.5761719 C 93.30449,1.4654297 87.836719,3.7929682 84.949219,8.5742188 81.749219,13.424219 83.175,19.374219 83.5625,24.761719 c -4.5625,-2.6 -9.274219,-5.8125 -14.761719,-5.5625 -10.6625,-0.925 -21.42539,3.176562 -29.21289,10.414062 -9.9375,8.6125 -18.3,19.173828 -24,31.048828 -5.2,9.6125 -9.9750004,19.4875 -13.4375004,29.875 -0.625,2.7125 -0.7011718,5.51211 -0.9511718,8.28711 2.8875,-3.9125 6.9890636,-6.7375 11.7265622,-7.875 11.125,-3.875 22.7375,0.188281 34.0625,0.113281 0.7625,4.6125 0.499219,9.29922 0.511719,13.94922 l 0,189.91406 c -0.5375,2.3125 1.511719,4.36172 3.824219,3.82422 215.345021,-0.36525 214.284361,-0.36525 214.284361,-0.36525 0,0 1.06066,0 -0.63397,-257.13473 -4.55,-0.1625 -8.2,-3.475 -12.5625,-4.5 C 242.14961,33.0875 230.25,39.349609 220.625,33.224609 212.825,26.949609 210.02461,16.775 207.34961,7.5625 c -0.6875,6.1 1.25117,12.062109 3.45117,17.662109 3.0375,6.85 8.0375,13.375 15.375,15.875 -12.35,0.075 -24.76289,0.500782 -37.08789,-0.136718 -7.1,-5.75 -14.59961,-11.100782 -23.03711,-14.738282 -13.8625,-6.7875 -30.31328,-7.425 -44.86328,-2.5 -5.2375,1.8125 -9.50078,5.52461 -14.55078,7.72461 -5.675,1.675 -12.324611,0.339062 -16.287111,-4.273438 -2.825,-2.325 -2.275,-6.213672 -2.75,-9.451172 2.1875,2.6 4.326172,5.4875 7.576172,6.8125 4.824999,2.4 10.687109,-0.40039 13.662109,-4.46289 C 113.10039,14.374219 110.4875,5.2875 104,2.5 102.30938,1.921875 100.51309,1.6130859 98.710938,1.5761719 Z M 71.519531,31.746094 c 3.556226,-0.02854 6.970313,1.235547 9.78125,3.466797 -3.825,0.6 -8.33789,-0.638282 -11.52539,2.136718 -1.7,1.1875 -3.188282,2.66211 -4.925782,3.78711 -3.5125,0.3375 -7.061718,0.08828 -10.574218,-0.136719 3.825,-4.85 9.11289,-9.474609 15.71289,-9.162109 0.5125,-0.05781 1.023218,-0.08772 1.53125,-0.0918 z m 69.994139,0.210937 c 11.54917,0.185471 22.68008,5.190625 33.53711,8.867188 C 163.37578,41.636719 151.675,41.0875 140,41.25 c -9.6125,-0.15 -19.24961,0.361719 -28.84961,-0.363281 6.925,-3.925 14.21133,-7.748438 22.29883,-8.210938 2.71172,-0.546093 5.39926,-0.761551 8.06445,-0.71875 z m -48.837889,4.767578 c 3.425,1.4125 7.07461,2.33711 10.349609,4.09961 -2.95,0.35 -5.926171,0.450781 -8.888671,0.363281 -0.5,-1.4875 -0.985938,-2.975391 -1.460938,-4.462891 z"
     transform="scale(0.8,0.8)"
     id="path6"
     style="fill:#0a0a3a;fill-opacity:1"
     inkscape:connector-curvature="0"
     sodipodi:nodetypes="sccccccccccccccccccccccccccccsscccccssccccscccc" />
</svg>
