<?xml version="1.0" encoding="UTF-8" standalone="no"?>
<svg
   xmlns:dc="http://purl.org/dc/elements/1.1/"
   xmlns:cc="http://creativecommons.org/ns#"
   xmlns:rdf="http://www.w3.org/1999/02/22-rdf-syntax-ns#"
   xmlns:svg="http://www.w3.org/2000/svg"
   xmlns="http://www.w3.org/2000/svg"
   xmlns:sodipodi="http://sodipodi.sourceforge.net/DTD/sodipodi-0.dtd"
   xmlns:inkscape="http://www.inkscape.org/namespaces/inkscape"
   width="215px"
   height="280px"
   viewBox="0 0 215px 280px"
   version="1.1"
   id="svg2"
   inkscape:version="0.91 r13725"
   sodipodi:docname="bannerbackgroundR.svg">
  <metadata
     id="metadata24">
    <rdf:RDF>
      <cc:Work
         rdf:about="">
        <dc:format>image/svg+xml</dc:format>
        <dc:type
           rdf:resource="http://purl.org/dc/dcmitype/StillImage" />
        <dc:title></dc:title>
      </cc:Work>
    </rdf:RDF>
  </metadata>
  <defs
     id="defs22" />
  <path
     d="M 1.00225,0.57722297 0,206.03972 c 4.06,-0.24 6.61,3.73876 10.4,4.66876 8.32,4.36 18.61031,-1.3 26.47031,4.45 5.74,5.05 7.70031,12.92031 9.42031,20.07031 0.26,-2.79 0.55,-5.66969 -0.35,-8.37969 -1.77,-7.03 -5.36031,-14.24969 -12.02031,-17.77969 -3.55,-2.39 -7.98938,-1.58 -12.00938,-1.8 -4.69,0.19 -9.34062,-0.36 -13.99062,-0.8 17.02,-0.18 34.02946,-0.54031 51.05936,-0.47031 8.39,10.06 19.78096,17.75031 32.46096,21.17031 8.019997,2.28 16.57936,1.45907 24.55936,-0.56093 5.87,-1.47 10.53968,-7.07876 16.97968,-6.01876 5.55,0.74 10.62096,5.55969 9.76096,11.47969 -1.95,-1.95 -3.72096,-4.24 -6.31096,-5.35 -3.08,-0.61 -6.79904,-0.74062 -9.13904,1.70938 -5.36,4.04 -4.00968,14.06 2.57032,16.1 4.41,0.56 9.57904,0.90093 12.93904,-2.58907 4.24,-3.69 3.86,-9.67062 3.3,-14.74062 4.66,3.19 9.99064,5.98 15.84064,5.35 12.34,-0.17 22.13968,-8.86938 29.97968,-17.50938 6.66,-7.06 10.87032,-15.92031 15.72032,-24.22031 2.99,-6.34 6.76904,-12.61093 7.33904,-19.76093 -3.84,4.78 -10.05936,6.57124 -15.95936,6.78124 -0.26,-58.54 0.0192,-117.090313 -0.14064,-175.620312 0.13,-1.58000003 -1.65936,-2.44031303 -3.00936,-2.17031303 z M 136.59999,205.77879 c 0.8,3.69 1.65096,7.38093 2.26096,11.11093 -2.34,-0.89 -4.68,-1.74093 -7.05,-2.51093 1.74,-2.79 2.85904,-5.93 4.78904,-8.6 z m -45.35312,0.23593 c 13.04632,0.009 26.09528,0.16563 39.1328,0.13438 -4.06,6.99 -11.68,10.95031 -19.4,12.37031 -5.31,0.32 -10.64904,0.44 -15.93904,0.05 -9.76,-2.36 -19.30032,-6.13062 -27.27032,-12.34062 7.82248,-0.17251 15.6488,-0.21963 23.47656,-0.21407 z m 76.58592,0.0328 c 1.55,0.006 3.1028,0.0215 4.65784,0.0516 0.28,6.61 -4.1,12.81 -10.15,15.25 -5.36,1.16 -11.03968,0.42 -15.57968,-2.75 4.24,-0.08 9.21,1.22 12.65,-2.05 3.27,-2.46 3.47968,-6.78 3.77968,-10.5 1.54496,-0.005 3.09216,-0.008 4.64216,-0.002 z"
     id="path6"
     style="fill:#0a0a3a;fill-opacity:1"
     inkscape:connector-curvature="0"
     sodipodi:nodetypes="cccccccccccccccccccccccccccccccsccccsscccccs" />
</svg>
