<?xml version="1.0" encoding="UTF-8" standalone="no"?>
<svg
   xmlns:dc="http://purl.org/dc/elements/1.1/"
   xmlns:cc="http://creativecommons.org/ns#"
   xmlns:rdf="http://www.w3.org/1999/02/22-rdf-syntax-ns#"
   xmlns:svg="http://www.w3.org/2000/svg"
   xmlns="http://www.w3.org/2000/svg"
   xmlns:sodipodi="http://sodipodi.sourceforge.net/DTD/sodipodi-0.dtd"
   xmlns:inkscape="http://www.inkscape.org/namespaces/inkscape"
   width="673pt"
   height="101pt"
   viewBox="0 0 673 101"
   version="1.1"
   id="svg2"
   inkscape:version="0.91 r13725"
   sodipodi:docname="simpletext.svg">
  <metadata
     id="metadata64">
    <rdf:RDF>
      <cc:Work
         rdf:about="">
        <dc:format>image/svg+xml</dc:format>
        <dc:type
           rdf:resource="http://purl.org/dc/dcmitype/StillImage" />
      </cc:Work>
    </rdf:RDF>
  </metadata>
  <defs
     id="defs62" />
  <sodipodi:namedview
     pagecolor="none"
     bordercolor="#666666"
     borderopacity="1"
     objecttolerance="10"
     gridtolerance="10"
     guidetolerance="10"
     inkscape:pageopacity="0"
     inkscape:pageshadow="2"
     inkscape:window-width="1838"
     inkscape:window-height="1051"
     id="namedview60"
     showgrid="false"
     inkscape:zoom="1.1397763"
     inkscape:cx="580.39738"
     inkscape:cy="-17.294346"
     inkscape:window-x="-9"
     inkscape:window-y="-9"
     inkscape:window-maximized="1"
     inkscape:current-layer="svg2" />
  <path
     fill="none"
     d=" M 0.00 0.00 L 168.20 0.00 C 163.11 0.54 157.78 2.24 154.57 6.47 C 149.64 12.27 150.05 21.34 154.75 27.14 C 159.37 32.74 166.96 34.01 173.29 36.81 C 177.66 38.17 181.87 42.16 180.86 47.12 C 179.50 54.30 170.28 56.65 164.31 53.84 C 159.75 52.01 157.77 47.20 155.94 43.01 C 154.63 43.03 153.31 43.05 152.00 43.07 C 152.00 47.06 151.98 51.06 152.07 55.06 C 159.56 58.27 168.08 60.48 176.11 57.88 C 181.20 56.04 186.50 52.64 188.03 47.12 C 189.64 41.58 189.59 34.85 185.41 30.41 C 180.09 24.32 171.53 23.63 164.66 20.20 C 160.81 18.41 157.82 13.90 159.45 9.63 C 161.58 3.81 169.54 2.58 174.41 5.59 C 178.21 7.69 179.57 12.05 181.16 15.79 C 182.46 15.84 183.76 15.88 185.07 15.92 C 184.96 11.24 184.55 6.58 183.79 1.96 C 180.39 1.21 176.98 0.52 173.54 0.00 L 241.22 0.00 C 231.11 0.66 220.97 6.15 216.27 15.36 C 210.07 27.63 212.72 44.53 223.93 53.05 C 231.35 59.19 241.74 59.77 250.88 58.36 C 260.66 56.94 269.07 49.86 272.71 40.76 C 277.33 29.80 274.83 16.14 266.04 7.97 C 260.65 2.79 253.18 0.35 245.82 0.00 L 402.21 0.00 C 391.81 0.67 381.36 6.50 376.87 16.17 C 371.20 28.36 373.96 44.75 384.96 53.07 C 392.37 59.18 402.73 59.77 411.84 58.37 C 421.39 56.99 429.67 50.22 433.43 41.42 C 438.20 30.76 436.22 17.36 428.01 8.93 C 422.55 3.14 414.61 0.34 406.79 0.00 L 673.00 0.00 L 673.00 84.23 C 672.55 78.11 668.21 72.40 662.20 70.82 C 657.21 69.57 651.98 70.02 646.90 70.18 C 644.21 70.51 640.85 70.02 639.16 72.67 C 641.08 72.89 643.02 73.04 644.96 73.18 C 644.81 80.97 645.45 88.83 644.66 96.58 C 642.90 97.83 640.80 98.50 638.99 99.66 C 646.00 100.24 653.05 100.05 660.08 99.89 C 666.70 99.74 672.07 94.06 673.00 87.69 L 673.00 101.00 L 349.83 101.00 C 353.83 100.46 357.87 98.85 360.38 95.54 C 365.57 89.42 365.12 79.30 359.07 73.91 C 352.33 67.98 340.52 68.77 335.00 76.00 C 329.96 82.76 331.34 93.74 338.48 98.50 C 340.69 100.13 343.46 100.69 346.14 101.00 L 234.65 101.00 C 236.82 100.54 239.19 100.32 241.04 98.98 C 241.72 96.82 241.73 94.52 241.97 92.28 C 238.29 94.97 235.02 99.51 229.91 98.97 C 225.19 98.86 221.83 94.54 221.28 90.14 C 220.67 85.01 220.81 79.25 224.00 74.94 C 225.77 72.39 229.15 71.54 232.07 72.22 C 236.26 72.93 238.48 77.11 242.22 78.76 C 241.78 76.13 241.18 73.54 240.48 70.97 C 233.96 69.99 226.54 68.75 220.73 72.70 C 212.86 77.70 211.59 90.29 218.37 96.71 C 220.81 99.15 224.20 100.23 227.49 101.00 L 193.00 101.00 C 193.04 92.96 192.94 84.92 193.01 76.88 C 192.64 73.84 196.45 73.32 197.88 71.25 C 193.65 70.91 189.40 70.86 185.17 71.15 C 186.34 72.82 188.16 73.71 189.94 74.57 C 190.04 80.54 190.00 86.51 190.00 92.48 C 183.24 85.40 176.80 78.02 170.00 70.97 C 166.68 70.96 163.36 70.98 160.05 71.24 C 161.74 72.97 164.68 74.14 164.90 76.86 C 165.28 83.80 165.03 90.77 164.91 97.71 C 163.59 97.82 162.28 97.92 160.97 98.03 C 160.98 98.53 161.00 99.55 161.00 100.05 C 164.97 100.01 168.95 100.12 172.91 99.73 C 171.67 98.22 169.83 97.64 168.06 97.03 C 167.96 90.63 168.00 84.23 168.02 77.83 C 175.69 85.18 182.51 93.35 189.88 101.00 L 57.66 101.00 C 59.84 100.57 62.14 100.25 64.04 99.03 C 64.71 96.85 64.74 94.54 64.97 92.28 C 61.30 94.96 58.05 99.48 52.97 98.97 C 48.22 98.89 44.83 94.56 44.28 90.13 C 43.67 85.02 43.81 79.27 46.99 74.96 C 48.77 72.37 52.20 71.53 55.15 72.23 C 59.30 72.98 61.49 77.13 65.22 78.75 C 64.79 76.13 64.18 73.54 63.47 70.97 C 56.96 70.00 49.54 68.75 43.73 72.70 C 35.88 77.69 34.60 90.22 41.31 96.65 C 43.77 99.14 47.19 100.23 50.51 101.00 L 10.80 101.00 C 13.94 100.21 17.46 98.98 19.03 95.91 C 20.45 92.79 20.51 88.60 17.87 86.09 C 14.34 82.41 8.43 82.70 4.91 79.07 C 2.41 76.13 5.40 71.70 8.98 72.01 C 13.46 71.54 15.01 76.45 17.84 78.88 C 17.92 76.24 17.75 73.60 17.50 70.98 C 13.20 70.17 8.42 69.18 4.35 71.36 C 2.04 72.47 0.87 74.87 0.00 77.15 L 0.00 0.00 Z"
     id="path4" />
  <path
     fill="#09093a"
     d=" M 168.20 0.00 L 173.54 0.00 C 176.98 0.52 180.39 1.21 183.79 1.96 C 184.55 6.58 184.96 11.24 185.07 15.92 C 183.76 15.88 182.46 15.84 181.16 15.79 C 179.57 12.05 178.21 7.69 174.41 5.59 C 169.54 2.58 161.58 3.81 159.45 9.63 C 157.82 13.90 160.81 18.41 164.66 20.20 C 171.53 23.63 180.09 24.32 185.41 30.41 C 189.59 34.85 189.64 41.58 188.03 47.12 C 186.50 52.64 181.20 56.04 176.11 57.88 C 168.08 60.48 159.56 58.27 152.07 55.06 C 151.98 51.06 152.00 47.06 152.00 43.07 C 153.31 43.05 154.63 43.03 155.94 43.01 C 157.77 47.20 159.75 52.01 164.31 53.84 C 170.28 56.65 179.50 54.30 180.86 47.12 C 181.87 42.16 177.66 38.17 173.29 36.81 C 166.96 34.01 159.37 32.74 154.75 27.14 C 150.05 21.34 149.64 12.27 154.57 6.47 C 157.78 2.24 163.11 0.54 168.20 0.00 Z"
     id="path6" />
  <path
     d="M 301.52539 0 C 288.88789 0.825 276.21289 7.6867188 270.33789 19.199219 C 262.58789 34.536719 265.89961 55.6625 279.91211 66.3125 C 289.18711 73.9875 302.17461 74.711719 313.59961 72.949219 C 325.82461 71.174219 336.33672 62.324219 340.88672 50.949219 C 346.66172 37.249219 343.53828 20.175391 332.55078 9.9628906 C 325.81328 3.4878906 316.47539 0.4375 307.27539 0 L 301.52539 0 z M 304.28711 5.0351562 C 310.53555 5.225 316.75625 8.0867188 320.375 13.261719 C 325.55 20.624219 326.26211 29.987891 326.22461 38.712891 C 326.21211 46.837891 325.1 55.612109 319.75 62.099609 C 312.4375 70.999609 296.61211 71.037891 290.09961 61.150391 C 283.69961 50.775391 282.93711 37.874609 284.34961 26.037109 C 285.43711 17.724609 289.5125 8.475 298.125 5.75 C 300.11875 5.20625 302.2043 4.971875 304.28711 5.0351562 z "
     transform="scale(0.8,0.8)"
     id="path8"
     style="fill:#09093a;fill-opacity:1" />
  <path
     d="M 502.76172 0 C 489.76172 0.8375 476.70039 8.1253906 471.08789 20.212891 C 464.00039 35.450391 467.44922 55.937891 481.19922 66.337891 C 490.46172 73.975391 503.41328 74.712891 514.80078 72.962891 C 526.73828 71.237891 537.08711 62.775391 541.78711 51.775391 C 547.74961 38.450391 545.27422 21.699609 535.01172 11.162109 C 528.18672 3.9246094 518.26328 0.425 508.48828 0 L 502.76172 0 z M 505.52734 5.0390625 C 511.76406 5.2259766 517.97148 8.0683594 521.59961 13.224609 C 526.57461 20.249609 527.44961 29.188281 527.47461 37.550781 C 527.56211 46.063281 526.58672 55.349609 520.94922 62.162109 C 513.61172 70.999609 497.85039 71.012891 491.33789 61.150391 C 484.96289 50.800391 484.19961 37.912109 485.59961 26.099609 C 486.66211 17.762109 490.7375 8.4875 499.375 5.75 C 501.36563 5.209375 503.44844 4.9767578 505.52734 5.0390625 z "
     transform="scale(0.8,0.8)"
     id="path10"
     style="fill:#09093a;fill-opacity:1" />
  <path
     fill="#09093a"
     d=" M 298.53 1.11 C 308.18 0.98 317.83 0.94 327.48 1.20 C 326.06 4.41 321.89 3.89 319.08 5.05 C 318.91 21.32 319.02 37.60 319.03 53.87 C 326.27 53.88 333.96 54.81 340.75 51.69 C 344.65 49.85 346.68 45.82 348.11 41.98 C 349.42 42.02 350.74 42.07 352.06 42.12 C 351.89 47.42 351.43 52.71 350.70 57.96 C 333.47 58.06 316.23 57.97 299.00 58.00 C 299.00 57.26 299.00 55.77 299.00 55.02 C 301.53 54.59 304.09 54.23 306.55 53.45 C 307.30 51.03 306.87 48.46 306.95 45.97 C 307.03 34.97 306.99 23.96 307.01 12.96 C 306.95 10.55 306.99 8.10 306.40 5.74 C 303.99 3.78 299.57 4.52 298.53 1.11 Z"
     id="path12" />
  <path
     fill="#09093a"
     d=" M 456.80 0.93 C 463.52 0.82 470.24 1.12 476.97 1.00 C 490.67 14.50 503.47 28.90 517.00 42.57 C 517.01 32.38 516.98 22.19 517.02 12.00 C 516.98 10.16 517.04 8.28 516.54 6.49 C 514.27 5.07 511.53 4.88 509.01 4.14 C 509.02 3.34 509.03 1.72 509.03 0.91 C 516.02 0.58 523.00 1.07 529.98 1.02 C 529.98 1.79 529.98 3.32 529.98 4.09 C 527.39 5.16 523.44 5.24 522.13 7.93 C 521.82 24.95 522.09 42.00 522.00 59.03 C 520.11 59.00 518.22 58.98 516.34 58.93 C 508.79 50.39 500.62 42.42 492.90 34.04 C 486.60 27.10 479.84 20.60 473.00 14.20 C 473.19 27.37 472.60 40.58 473.32 53.73 C 475.85 54.25 478.42 54.58 480.99 54.90 C 481.03 55.69 481.13 57.26 481.17 58.04 C 474.11 58.01 467.05 57.98 459.98 58.13 C 459.98 57.33 459.97 55.73 459.97 54.92 C 462.43 54.81 464.95 54.99 467.37 54.41 C 468.42 51.38 467.91 48.11 468.06 44.97 C 467.95 33.58 468.59 22.16 467.67 10.81 C 467.08 5.71 461.17 4.55 457.00 3.93 C 456.95 3.18 456.85 1.68 456.80 0.93 Z"
     id="path14" />
  <path
     fill="#09093a"
     d=" M 4.35 71.36 C 8.42 69.18 13.20 70.17 17.50 70.98 C 17.75 73.60 17.92 76.24 17.84 78.88 C 15.01 76.45 13.46 71.54 8.98 72.01 C 5.40 71.70 2.41 76.13 4.91 79.07 C 8.43 82.70 14.34 82.41 17.87 86.09 C 20.51 88.60 20.45 92.79 19.03 95.91 C 17.46 98.98 13.94 100.21 10.80 101.00 L 7.15 101.00 C 4.71 100.57 2.32 99.89 0.00 99.04 L 0.00 91.73 C 2.89 94.60 5.21 99.49 10.01 98.98 C 13.63 99.27 17.67 95.24 15.26 91.76 C 11.82 88.04 5.87 88.26 2.35 84.60 C 1.15 83.24 0.57 81.49 0.00 79.81 L 0.00 77.15 C 0.87 74.87 2.04 72.47 4.35 71.36 Z"
     id="path20" />
  <path
     fill="#09093a"
     d=" M 43.73 72.70 C 49.54 68.75 56.96 70.00 63.47 70.97 C 64.18 73.54 64.79 76.13 65.22 78.75 C 61.49 77.13 59.30 72.98 55.15 72.23 C 52.20 71.53 48.77 72.37 46.99 74.96 C 43.81 79.27 43.67 85.02 44.28 90.13 C 44.83 94.56 48.22 98.89 52.97 98.97 C 58.05 99.48 61.30 94.96 64.97 92.28 C 64.74 94.54 64.71 96.85 64.04 99.03 C 62.14 100.25 59.84 100.57 57.66 101.00 L 50.51 101.00 C 47.19 100.23 43.77 99.14 41.31 96.65 C 34.60 90.22 35.88 77.69 43.73 72.70 Z"
     id="path22" />
  <path
     fill="#09093a"
     d=" M 220.73 72.70 C 226.54 68.75 233.96 69.99 240.48 70.97 C 241.18 73.54 241.78 76.13 242.22 78.76 C 238.48 77.11 236.26 72.93 232.07 72.22 C 229.15 71.54 225.77 72.39 224.00 74.94 C 220.81 79.25 220.67 85.01 221.28 90.14 C 221.83 94.54 225.19 98.86 229.91 98.97 C 235.02 99.51 238.29 94.97 241.97 92.28 C 241.73 94.52 241.72 96.82 241.04 98.98 C 239.19 100.32 236.82 100.54 234.65 101.00 L 227.49 101.00 C 224.20 100.23 220.81 99.15 218.37 96.71 C 211.59 90.29 212.86 77.70 220.73 72.70 Z"
     id="path24" />
  <path
     d="M 435.33008 87.453125 C 429.00063 87.380286 422.63125 89.916406 418.75 95 C 412.45 103.45 414.17461 117.175 423.09961 123.125 C 425.86211 125.1625 429.32578 125.8625 432.67578 126.25 L 437.28711 126.25 C 442.28711 125.575 447.33711 123.56328 450.47461 119.42578 C 456.96211 111.77578 456.40039 99.124219 448.83789 92.386719 C 445.15195 89.14375 440.25298 87.509778 435.33008 87.453125 z M 434.15234 90.015625 C 437.8625 89.941211 441.64297 91.786719 443.57422 95.011719 C 446.27422 99.474219 446.375 104.91328 446.1875 109.98828 C 445.9625 114.17578 444.84961 118.74961 441.47461 121.53711 C 437.12461 125.04961 429.80078 124.32539 426.86328 119.33789 C 423.71328 113.85039 423.30039 107.19961 424.08789 101.03711 C 424.70039 96.974609 426.51211 92.4875 430.53711 90.75 C 431.68711 90.278125 432.91562 90.04043 434.15234 90.015625 z "
     transform="scale(0.8,0.8)"
     id="path26"
     style="fill:#09093a;fill-opacity:1" />
  <path
     d="M 760.0625 87.4375 C 755.7 98.9 751.525 110.43828 747.0625 121.86328 C 745.025 122.41328 742.53672 122.46328 741.82422 124.86328 C 746.84922 124.96328 751.89922 124.99961 756.94922 124.84961 C 756.13672 122.21211 753.23711 122.31172 751.09961 121.51172 C 752.13711 118.52422 753.21211 115.56289 754.28711 112.58789 C 757.94961 112.51289 761.62461 112.35039 765.28711 112.58789 C 766.83711 115.51289 767.87461 118.68672 769.09961 121.76172 C 766.89961 122.44922 764.06289 122.3125 763.02539 124.8125 C 769.75039 125.2875 776.5125 125.24961 783.25 124.78711 C 782.0375 121.66211 777.37578 123.08672 776.42578 119.88672 C 772.10078 109.12422 767.80039 98.336719 763.33789 87.636719 C 762.51289 87.586719 760.875 87.4875 760.0625 87.4375 z M 759.625 98.550781 C 761.3875 102.28828 762.97539 106.11328 764.40039 109.98828 C 761.40039 109.98828 758.40039 109.95078 755.40039 109.92578 C 756.82539 106.13828 758.2 102.33828 759.625 98.550781 z "
     transform="scale(0.8,0.8)"
     id="path28"
     style="fill:#09093a;fill-opacity:1" />
  <path
     d="M 818.23047 87.464844 C 815.02266 87.435156 811.8 87.624609 808.625 87.724609 C 805.2625 88.137109 801.06172 87.525391 798.94922 90.837891 C 801.34922 91.112891 803.77422 91.299609 806.19922 91.474609 C 806.01172 101.21211 806.81172 111.03711 805.82422 120.72461 C 803.62422 122.28711 801.00078 123.12422 798.73828 124.57422 C 807.50078 125.29922 816.31211 125.06328 825.09961 124.86328 C 833.37461 124.67578 840.0875 117.57578 841.25 109.61328 L 841.25 105.28711 C 840.6875 97.637109 835.2625 90.500391 827.75 88.525391 C 824.63125 87.744141 821.43828 87.494531 818.23047 87.464844 z M 818.16602 90.005859 C 822.31387 89.975391 826.48711 91.365234 829.03711 94.787109 C 833.29961 100.52461 833.0875 108.41289 831.3125 115.02539 C 829.8625 121.10039 822.38711 124.23711 816.84961 121.66211 C 813.72461 120.37461 813.73828 116.63828 813.73828 113.80078 C 813.95078 106.03828 813.30039 98.213281 814.08789 90.488281 C 815.40352 90.185156 816.7834 90.016016 818.16602 90.005859 z "
     transform="scale(0.8,0.8)"
     id="path30"
     style="fill:#09093a;fill-opacity:1" />
  <path
     fill="#09093a"
     d=" M 82.00 71.00 C 86.85 71.04 91.71 70.89 96.56 71.12 C 95.87 73.10 93.73 73.30 92.05 73.95 C 92.02 81.75 91.95 89.56 92.03 97.36 C 93.77 97.78 96.07 97.62 96.47 99.87 C 91.43 100.10 86.36 100.23 81.32 99.81 C 82.47 98.38 84.24 97.81 85.73 96.83 C 86.34 89.05 85.90 81.18 85.93 73.36 C 84.62 73.21 83.31 73.06 82.00 72.92 C 82.00 72.44 82.00 71.48 82.00 71.00 Z"
     id="path32" />
  <path
     fill="#09093a"
     d=" M 113.54 71.08 C 121.03 70.92 128.52 71.03 136.01 71.00 C 137.63 71.12 139.41 70.90 140.89 71.70 C 141.11 74.35 141.02 77.01 140.95 79.66 C 139.24 77.53 138.00 75.01 135.96 73.16 C 131.99 72.79 127.99 73.07 124.00 73.01 C 124.00 76.68 124.00 80.35 124.00 84.02 C 127.10 83.90 130.32 84.27 133.33 83.38 C 134.47 81.82 134.95 79.89 135.93 78.23 C 136.06 82.75 136.09 87.28 135.91 91.81 C 134.92 90.08 134.40 88.13 133.38 86.42 C 130.33 85.63 127.12 86.11 124.00 86.00 C 123.99 89.86 123.92 93.73 124.18 97.60 C 128.08 98.03 132.09 98.29 135.96 97.45 C 139.29 96.73 139.88 92.53 143.00 91.47 C 142.76 94.32 142.32 97.15 141.96 99.98 C 132.50 100.15 123.03 99.98 113.57 100.04 C 113.75 97.62 116.20 97.66 118.00 97.10 C 117.98 89.26 118.05 81.43 117.96 73.60 C 116.22 73.14 113.84 73.40 113.54 71.08 Z"
     id="path34" />
  <path
     fill="#09093a"
     d=" M 160.05 71.24 C 163.36 70.98 166.68 70.96 170.00 70.97 C 176.80 78.02 183.24 85.40 190.00 92.48 C 190.00 86.51 190.04 80.54 189.94 74.57 C 188.16 73.71 186.34 72.82 185.17 71.15 C 189.40 70.86 193.65 70.91 197.88 71.25 C 196.45 73.32 192.64 73.84 193.01 76.88 C 192.94 84.92 193.04 92.96 193.00 101.00 L 189.88 101.00 C 182.51 93.35 175.69 85.18 168.02 77.83 C 168.00 84.23 167.96 90.63 168.06 97.03 C 169.83 97.64 171.67 98.22 172.91 99.73 C 168.95 100.12 164.97 100.01 161.00 100.05 C 161.00 99.55 160.98 98.53 160.97 98.03 C 162.28 97.92 163.59 97.82 164.91 97.71 C 165.03 90.77 165.28 83.80 164.90 76.86 C 164.68 74.14 161.74 72.97 160.05 71.24 Z"
     id="path36" />
  <path
     fill="#09093a"
     d=" M 258.56 71.07 C 267.66 71.07 276.79 70.69 285.87 71.33 C 286.00 74.11 286.03 76.89 285.97 79.66 C 284.27 77.54 282.99 75.08 281.03 73.18 C 277.03 72.78 273.01 73.07 269.00 73.01 C 269.00 76.68 268.99 80.35 269.02 84.03 C 272.11 83.89 275.34 84.28 278.34 83.36 C 279.48 81.81 279.95 79.88 280.92 78.23 C 281.06 82.75 281.09 87.28 280.91 91.81 C 279.91 90.05 279.38 88.08 278.34 86.36 C 275.28 85.70 272.11 86.08 269.00 86.00 C 269.00 89.86 268.93 93.72 269.16 97.58 C 273.09 98.04 277.14 98.31 281.04 97.43 C 284.30 96.67 284.90 92.52 287.99 91.47 C 287.76 94.31 287.32 97.13 286.96 99.96 C 277.49 100.15 268.00 100.06 258.53 99.94 C 258.90 97.71 261.24 97.76 262.89 96.96 C 263.16 89.18 262.95 81.39 262.96 73.61 C 261.22 73.14 258.83 73.40 258.56 71.07 Z"
     id="path38" />
  <path
     fill="#09093a"
     d=" M 381.29 71.21 C 386.41 70.87 391.56 70.91 396.68 71.24 C 395.50 72.67 393.68 73.07 392.03 73.66 C 391.98 81.77 391.98 89.89 392.03 98.00 C 395.68 97.93 399.52 98.35 402.98 96.95 C 405.67 95.90 406.20 92.33 409.05 91.46 C 408.93 94.33 408.67 97.20 408.35 100.06 C 399.39 99.90 390.43 100.28 381.48 99.88 C 382.05 97.77 384.24 97.86 385.98 97.44 C 385.91 89.64 386.18 81.83 385.85 74.03 C 384.25 73.22 382.58 72.48 381.29 71.21 Z"
     id="path40" />
  <path
     fill="#09093a"
     d=" M 419.32 71.15 C 424.39 70.93 429.47 70.91 434.54 71.13 C 433.94 72.92 432.13 73.30 430.58 73.89 C 432.77 77.70 435.26 81.33 437.81 84.91 C 441.12 81.78 443.28 77.60 445.40 73.61 C 443.89 73.07 442.22 72.69 441.39 71.16 C 444.79 70.92 448.22 70.92 451.64 71.16 C 450.44 73.16 447.77 73.48 446.60 75.49 C 444.22 79.39 441.44 83.05 439.19 87.03 C 438.75 90.54 439.08 94.10 439.00 97.64 C 440.69 98.04 442.82 97.91 443.58 99.86 C 438.51 100.14 433.41 100.17 428.35 99.82 C 429.38 98.21 431.30 98.00 432.97 97.47 C 432.81 94.21 433.54 90.77 432.46 87.63 C 430.07 83.67 427.31 79.95 424.92 75.98 C 423.68 73.73 421.40 72.48 419.32 71.15 Z"
     id="path42" />
  <path
     fill="#09093a"
     d=" M 465.46 71.13 C 469.26 70.92 473.08 71.00 476.90 71.02 C 480.06 77.68 483.16 84.36 486.33 91.02 C 489.52 84.48 492.15 77.69 495.12 71.05 C 498.60 70.99 502.08 70.94 505.56 71.10 C 504.98 73.19 502.80 73.52 501.11 74.30 C 500.88 81.73 501.03 89.16 501.02 96.59 C 502.77 97.32 505.07 97.66 505.47 99.91 C 500.48 100.12 495.49 100.14 490.51 99.94 C 490.88 97.71 493.14 97.44 494.88 96.76 C 495.03 90.09 495.18 83.41 494.77 76.75 C 491.58 84.58 487.71 92.12 484.70 100.02 C 484.36 100.01 483.66 99.99 483.32 99.97 C 480.22 92.17 476.44 84.67 473.23 76.92 C 473.02 83.21 472.74 89.57 473.29 95.84 C 474.52 97.44 476.97 97.86 477.55 100.04 C 473.49 100.16 469.41 100.20 465.36 99.83 C 466.14 97.51 469.82 97.71 469.85 95.09 C 470.15 88.12 470.06 81.12 469.84 74.14 C 468.15 73.44 465.98 73.21 465.46 71.13 Z"
     id="path44" />
  <path
     fill="#09093a"
     d=" M 522.47 71.11 C 527.99 70.95 533.53 70.94 539.06 71.05 C 541.84 71.08 544.94 71.98 546.44 74.52 C 549.40 78.60 547.90 85.17 543.21 87.23 C 540.36 88.47 536.16 88.52 534.44 85.46 C 536.34 84.82 539.04 85.13 540.14 83.05 C 541.49 80.42 541.31 76.86 539.48 74.48 C 537.89 72.69 535.27 73.20 533.14 73.07 C 532.73 81.07 533.00 89.11 533.11 97.12 C 534.76 97.77 537.03 97.74 537.49 99.88 C 532.45 100.10 527.39 100.18 522.36 99.81 C 523.39 98.17 525.30 97.65 526.95 96.85 C 527.01 89.23 527.07 81.61 526.91 73.99 C 525.23 73.31 523.02 73.18 522.47 71.11 Z"
     id="path46" />
  <path
     fill="#09093a"
     d=" M 565.00 71.00 C 569.85 71.04 574.71 70.89 579.57 71.12 C 578.86 73.09 576.73 73.30 575.05 73.95 C 575.02 81.76 574.95 89.56 575.03 97.37 C 576.77 97.79 579.09 97.60 579.45 99.87 C 574.42 100.10 569.36 100.25 564.34 99.82 C 565.43 98.34 567.24 97.83 568.72 96.85 C 569.33 89.05 568.91 81.18 568.92 73.35 C 567.60 73.20 566.30 73.06 565.00 72.93 C 565.00 72.45 565.00 71.48 565.00 71.00 Z"
     id="path48" />
  <path
     fill="none"
     d=" M 0.00 79.81 C 0.57 81.49 1.15 83.24 2.35 84.60 C 5.87 88.26 11.82 88.04 15.26 91.76 C 17.67 95.24 13.63 99.27 10.01 98.98 C 5.21 99.49 2.89 94.60 0.00 91.73 L 0.00 79.81 Z"
     id="path56" />
  <path
     fill="none"
     d=" M 0.00 99.04 C 2.32 99.89 4.71 100.57 7.15 101.00 L 0.00 101.00 L 0.00 99.04 Z"
     id="path58" />
</svg>
