<?xml version="1.0" encoding="UTF-8" standalone="no"?>
<svg
   xmlns:dc="http://purl.org/dc/elements/1.1/"
   xmlns:cc="http://creativecommons.org/ns#"
   xmlns:rdf="http://www.w3.org/1999/02/22-rdf-syntax-ns#"
   xmlns:svg="http://www.w3.org/2000/svg"
   xmlns="http://www.w3.org/2000/svg"
   xmlns:sodipodi="http://sodipodi.sourceforge.net/DTD/sodipodi-0.dtd"
   xmlns:inkscape="http://www.inkscape.org/namespaces/inkscape"
   height="32px"
   id="Layer_1"
   style="enable-background:new 0 0 32 32;"
   version="1.1"
   viewBox="0 0 32 32"
   width="32px"
   xml:space="preserve"
   inkscape:version="0.91 r13725"
   sodipodi:docname="menuToggle.svg"><metadata
     id="metadata9"><rdf:RDF><cc:Work
         rdf:about=""><dc:format>image/svg+xml</dc:format><dc:type
           rdf:resource="http://purl.org/dc/dcmitype/StillImage" /></cc:Work></rdf:RDF></metadata><defs
     id="defs7" /><sodipodi:namedview
     pagecolor="#ffffff"
     bordercolor="#666666"
     borderopacity="1"
     objecttolerance="10"
     gridtolerance="10"
     guidetolerance="10"
     inkscape:pageopacity="0"
     inkscape:pageshadow="2"
     inkscape:window-width="1838"
     inkscape:window-height="1051"
     id="namedview5"
     showgrid="false"
     inkscape:zoom="7.375"
     inkscape:cx="16"
     inkscape:cy="16"
     inkscape:window-x="-9"
     inkscape:window-y="-9"
     inkscape:window-maximized="1"
     inkscape:current-layer="Layer_1" /><path
     d="m 6.5569007,11.220338 18.8861983,0 c 0.868766,0 1.57385,-0.713762 1.57385,-1.5932199 0,-0.8794571 -0.705084,-1.5932198 -1.57385,-1.5932198 l -18.8861983,0 c -0.8687651,0 -1.5738499,0.7137627 -1.5738499,1.5932198 0,0.8794579 0.7050848,1.5932199 1.5738499,1.5932199 z m 18.8861983,3.186442 -18.8861983,0 c -0.8687651,0 -1.5738499,0.713763 -1.5738499,1.59322 0,0.879459 0.7050848,1.593221 1.5738499,1.593221 l 18.8861983,0 c 0.868766,0 1.57385,-0.713762 1.57385,-1.593221 0,-0.879457 -0.705084,-1.59322 -1.57385,-1.59322 z m 0,6.372882 -18.8861983,0 c -0.8687651,0 -1.5738499,0.713762 -1.5738499,1.59322 0,0.879456 0.7050848,1.59322 1.5738499,1.59322 l 18.8861983,0 c 0.868766,0 1.57385,-0.713764 1.57385,-1.59322 0,-0.879458 -0.705084,-1.59322 -1.57385,-1.59322 z"
     id="path3"
     inkscape:connector-curvature="0"
     style="fill:#ffffff" /></svg>